<?xml version="1.0" encoding="UTF-8"?>
<svg id="Capa_2" xmlns="http://www.w3.org/2000/svg" viewBox="0 0 148.76 255.86">
  <defs>
    <style>
      .cls-1 {
        fill: #056078;
      }
    </style>
  </defs>
  <g id="Capa_1-2" data-name="Capa_1">
    <g>
      <path class="cls-1" d="M148.76,153.75h-8.91c0-11.62-7.4-21.07-19.02-21.07v-7.66c15.84,0,27.93,12.89,27.93,28.74Z"/>
      <g>
        <path class="cls-1" d="M131.7,130.85c4.58-.93,8.19-2.92,10.82-5.97,2.63-3.05,3.95-6.85,3.95-11.4,0-3.98-1.02-7.56-3.05-10.73-2.04-3.17-4.67-5.25-7.9-6.24s-7.39-1.48-12.48-1.48h-29.14v65.82h8.71v-28.15h18.22M139.85,153.75v93.2l-130.91-.02V8.94h117.23l.65,68.99,8.94-.08-.73-77.84H0v255.86h148.76v-102.12M122.05,124.88h-19.44v-22.63h20.79c9.4,0,14.1,3.74,14.1,11.22,0,4.19-1.22,7.14-3.66,8.84-2.44,1.71-6.37,2.56-11.78,2.56Z"/>
        <polygon class="cls-1" points="146.27 59.94 131.26 75.24 115.96 60.22 116.08 73.09 131.38 88.1 146.39 72.8 146.27 59.94"/>
      </g>
      <path class="cls-1" d="M80.65,88.05h-8.75v-55.98l-16.7,55.98h-7.36l-16.7-55.98v55.98h-8.75V22.24h15.05l14.18,47.87,14.18-47.87h14.86v65.82Z"/>
      <path class="cls-1" d="M102.65,88.05h-8.75V22.24h8.75v65.82Z"/>
      <path class="cls-1" d="M51.16,161.97c-9.46,0-17.13-3.1-23.01-9.29-5.88-6.2-8.82-14.44-8.82-24.74s2.9-18.58,8.71-24.76c5.81-6.18,13.42-9.27,22.85-9.27,7.93,0,14.52,1.91,19.78,5.72s8.19,8.93,8.82,15.33h-9.02c-.36-4.25-2.27-7.58-5.75-9.99-3.47-2.41-8.05-3.61-13.74-3.61-6.79,0-12.26,2.32-16.41,6.96-4.15,4.64-6.22,11.18-6.22,19.62s2.09,14.94,6.29,19.6c4.19,4.65,9.67,6.98,16.43,6.98,9.49,0,16.54-3.13,21.15-9.38v-10.01h-17.37v-7.86h25.81v33.58h-6.15l-2.29-6.91c-4.46,5.36-11.48,8.04-21.06,8.04Z"/>
      <path class="cls-1" d="M80.65,233.63h-9.32l-7.23-20.02h-26.12l-6.89,20.02h-8.72l23.95-65.82h8.89l25.44,65.82ZM61.68,206.7l-10.97-30.53-10.46,30.53h21.44Z"/>
      <path class="cls-1" d="M102.65,233.63h-8.75v-65.82h8.75v65.82Z"/>
      <rect class="cls-1" x="139.85" y="246.95" width="8.91" height="8.91"/>
    </g>
  </g>
</svg>