<?xml version="1.0" encoding="UTF-8"?>
<svg id="Capa_2" xmlns="http://www.w3.org/2000/svg" viewBox="0 0 376.88 114.5">
  <defs>
    <style>
      .cls-1 {
        fill: #fdfdfd;
      }
    </style>
  </defs>
  <g id="Capa_1-2" data-name="Capa_1">
    <g>
      <path class="cls-1" d="M247.8,82.54h-8.91c0-11.62-7.4-21.07-19.02-21.07v-7.66c15.84,0,27.93,12.89,27.93,28.74Z"/>
      <g>
        <path class="cls-1" d="M230.74,59.65c4.58-.93,8.19-2.92,10.82-5.97,2.63-3.05,3.95-6.85,3.95-11.4,0-3.98-1.02-7.56-3.05-10.73-2.04-3.17-4.67-5.25-7.9-6.24s-7.39-1.48-12.48-1.48h-29.14v65.82h8.71v-28.15h18.22M238.9,82.54v23.03l-229.96-.02V8.94h347.72l.65,70.7,8.94-.08-.73-79.55H0v114.5h247.8v-31.95M221.09,53.68h-19.44v-22.63h20.79c9.4,0,14.1,3.74,14.1,11.22,0,4.19-1.22,7.14-3.66,8.84-2.44,1.71-6.37,2.56-11.78,2.56Z"/>
        <polygon class="cls-1" points="376.76 61.65 361.75 76.95 346.46 61.93 346.58 74.8 361.87 89.81 376.88 74.51 376.76 61.65"/>
      </g>
      <path class="cls-1" d="M83.13,89.81h-8.75v-55.98l-16.7,55.98h-7.36l-16.7-55.98v55.98h-8.75V24h15.05l14.18,47.87,14.18-47.87h14.86v65.82Z"/>
      <path class="cls-1" d="M108.44,89.81h-8.75V24h8.75v65.82Z"/>
      <path class="cls-1" d="M150.2,90.76c-9.46,0-17.13-3.1-23.01-9.29s-8.82-14.44-8.82-24.74,2.9-18.58,8.71-24.76c5.81-6.18,13.42-9.27,22.85-9.27,7.93,0,14.52,1.91,19.78,5.72s8.19,8.93,8.82,15.33h-9.02c-.36-4.25-2.27-7.58-5.75-9.99-3.47-2.41-8.05-3.61-13.74-3.61-6.79,0-12.26,2.32-16.41,6.96-4.15,4.64-6.22,11.18-6.22,19.62s2.09,14.94,6.29,19.6c4.19,4.65,9.67,6.98,16.43,6.98,9.49,0,16.54-3.13,21.15-9.38v-10.01h-17.37v-7.86h25.81v33.58h-6.15l-2.29-6.91c-4.46,5.36-11.48,8.04-21.06,8.04Z"/>
      <path class="cls-1" d="M309.05,89.81h-9.32l-7.23-20.02h-26.12l-6.89,20.02h-8.72l23.95-65.82h8.89l25.44,65.82ZM290.08,62.87l-10.97-30.53-10.46,30.53h21.44Z"/>
      <path class="cls-1" d="M331.05,89.81h-8.75V24h8.75v65.82Z"/>
      <rect class="cls-1" x="238.9" y="105.58" width="8.91" height="8.91"/>
    </g>
  </g>
</svg>